<?xml version="1.0" encoding="UTF-8" standalone="no"?>
<svg width="144px" height="48px" viewBox="0 0 144 48" version="1.1" xmlns="http://www.w3.org/2000/svg" xmlns:xlink="http://www.w3.org/1999/xlink">
    <!-- Generator: Sketch 3.6.1 (26313) - http://www.bohemiancoding.com/sketch -->
    <title>bauxy_logo_blk</title>
    <desc>Created with Sketch.</desc>
    <defs>
        <path id="path-1" d="M0,0.12139844 L144,0.12139844 L144,47.4326241 L0,47.4326241 L0,0.12139844 Z"></path>
    </defs>
    <g id="Page-1" stroke="none" stroke-width="1" fill="none" fill-rule="evenodd">
        <g id="API-Docs---default" transform="translate(-420.000000, -35.000000)">
            <g id="content" transform="translate(360.000000, 0.000000)">
                <g id="bauxy_logo_blk" transform="translate(60.000000, 35.000000)">
                    <g id="bauxy_logo" transform="translate(0.000000, 0.234043)">
                        <path d="M84.2194105,34.4840448 C82.059591,36.2477751 79.2156812,37.1300946 75.6875008,37.1300946 C72.1593203,37.1300946 69.3197414,36.2521367 67.1676812,34.4960392 C65.0167038,32.7401235 63.9406737,30.1634961 63.9406737,26.7661571 L63.9406737,9.55865512 L70.4446737,9.55865512 L70.4446737,26.520089 C70.4446737,28.5386107 70.8689143,29.9992084 71.7179368,30.9018821 C72.5671398,31.8045558 73.9151098,32.2558018 75.7616662,32.2558018 C77.5752,32.2558018 78.8980872,31.8089175 79.7306887,30.9138766 C80.5631098,30.0201078 80.9797714,28.5551485 80.9797714,26.520089 L80.9797714,9.55865512 L87.4590496,9.55865512 L87.4590496,26.7661571 C87.4590496,30.1469583 86.3792301,32.7197692 84.2194105,34.4840448" id="Fill-1" fill="#000000"></path>
                        <path d="M64.1346947,9.75398303 L64.1346947,26.7661207 C64.1346947,30.085314 65.1961083,32.6350447 67.2897023,34.3444366 C69.3962887,36.0632785 72.221612,36.934694 75.6873564,36.934694 C79.1531008,36.934694 81.9825744,36.0590987 84.0972812,34.3322604 C86.1991759,32.6152357 87.2651008,30.0695032 87.2651008,26.7661207 L87.2651008,9.75398303 L81.1737925,9.75398303 L81.1737925,26.5200527 C81.1737925,28.596911 80.7358376,30.1200253 79.8721985,31.0475966 C79.0056722,31.9789843 77.6226947,32.4513115 75.7617023,32.4513115 C73.8680481,32.4513115 72.4603489,31.9749862 71.5772211,31.0361473 C70.6969805,30.100398 70.2507248,28.5811001 70.2507248,26.5200527 L70.2507248,9.75398303 L64.1346947,9.75398303 Z M75.6873564,37.3256042 C72.1304842,37.3256042 69.2228752,36.4247478 67.0455519,34.6477509 C64.8564992,32.8607586 63.7467248,30.209075 63.7467248,26.7661207 L63.7467248,9.36325452 L70.6386947,9.36325452 L70.6386947,26.5200527 C70.6386947,28.4776934 71.0492211,29.9068511 71.8589053,30.7675442 C72.6658827,31.6255113 73.9790256,32.0604012 75.7617023,32.0604012 C77.5111759,32.0604012 78.7988752,31.6296912 79.5892511,30.7802656 C80.3832361,29.9277505 80.7856421,28.4942312 80.7856421,26.5200527 L80.7856421,9.36325452 L87.6530707,9.36325452 L87.6530707,26.7661207 C87.6530707,30.1930824 86.538785,32.8407678 84.3414316,34.6357565 C82.155988,36.420568 79.2442286,37.3256042 75.6873564,37.3256042 L75.6873564,37.3256042 Z" id="Fill-3" fill="#000000"></path>
                        <path d="M3.67474286,37.1301491 L1.46981053,37.1301491 C0.658141353,37.1301491 3.60902258e-05,36.4673645 3.60902258e-05,35.6497424 L3.60902258e-05,1.60165978 C3.60902258e-05,0.784037651 0.658141353,0.121434787 1.46981053,0.121434787 L3.67474286,0.121434787 L3.67474286,37.1301491 Z" id="Fill-5" fill="#000000"></path>
                        <path d="M14.889203,21.0150695 L14.889203,31.0044529 L21.3482707,31.0044529 C23.1239098,31.0044529 24.5104962,30.5766506 25.5076692,29.7208643 C26.5043008,28.8652597 27.0028872,27.6832605 27.0028872,26.1748667 C27.0028872,22.7860692 25.2689323,21.0659551 21.8006617,21.0150695 L14.889203,21.0150695 Z M14.889203,15.626469 L20.4685714,15.626469 C24.2717594,15.5588639 26.1735338,14.0250273 26.1735338,11.0256862 C26.1735338,9.34809789 25.6917293,8.14083765 24.7284812,7.40372377 C23.7648722,6.66660989 22.244391,6.29805294 20.1670376,6.29805294 L14.889203,6.29805294 L14.889203,15.626469 Z M7.34959398,37.1301673 L7.34959398,0.121452961 L20.1670376,0.121452961 C24.6068571,0.121452961 27.9744361,0.981600891 30.2701353,2.70135155 C32.5654737,4.42146568 33.7133233,6.94211892 33.7133233,10.2631295 C33.7133233,12.076655 33.2522707,13.6735534 32.3310677,15.0545515 C31.4093233,16.4357314 30.1275789,17.4481726 28.4858346,18.0920568 C30.3621654,18.5665648 31.8409624,19.5241222 32.9216842,20.964184 C34.002406,22.4047909 34.5426767,24.1668856 34.5426767,26.2511951 C34.5426767,29.8097323 33.4199098,32.5041234 31.1749173,34.3341867 C28.9295639,36.1642501 25.7294436,37.0963647 21.5743759,37.1301673 L7.34959398,37.1301673 Z" id="Fill-7" fill="#000000"></path>
                        <path d="M47.613618,31.590055 C48.6891068,31.590055 49.6808662,31.3519832 50.5885353,30.8756579 C51.4962045,30.3993325 52.1682045,29.7599917 52.6054376,28.9578169 L52.6054376,24.2952445 L49.8826105,24.2952445 C46.2353323,24.2952445 44.2940391,25.5486652 44.0587308,28.0555067 L44.0336481,28.4814916 C44.0336481,29.3839836 44.3526857,30.1278217 44.9916632,30.7126423 C45.6302797,31.2978264 46.504385,31.590055 47.613618,31.590055 L47.613618,31.590055 Z M53.6390617,37.3690205 C53.3027008,36.71714 53.0592722,35.1665839 52.9080541,34.1972137 C51.1432421,36.1524919 48.8489865,37.1302218 46.0252872,37.1302218 C43.352806,37.1302218 41.1383098,36.3616679 39.3821594,34.8238332 C37.6256481,33.2865436 36.7475729,31.347985 36.7475729,29.0079756 C36.7475729,26.1336676 37.8189113,23.927778 39.9619489,22.3899432 C42.1049865,20.8526537 45.2015278,20.0753766 49.2522947,20.058657 L52.6054376,20.058657 L52.6054376,18.5044662 C52.6054376,17.2510455 52.2817083,16.2482362 51.634791,15.4962201 C50.9876932,14.744204 49.9665203,14.3680143 48.5716331,14.3680143 C47.3445654,14.3680143 46.3822195,14.6606063 45.6849564,15.2454269 C44.9873323,15.830611 44.6387008,16.6327858 44.6387008,17.6521328 L37.3526256,17.6521328 C37.3526256,16.0814042 37.8398436,14.627349 38.8148211,13.2901488 C39.7894376,11.9533121 41.1677233,10.9047058 42.9494977,10.1441482 C44.7309113,9.38377231 46.731212,9.00340265 48.9498586,9.00340265 C52.3113023,9.00340265 54.9792722,9.84319635 56.9544902,11.5227838 C58.9291669,13.2023712 59.9167759,15.5630983 59.9167759,18.6046017 L59.9167759,30.3617136 C59.9333774,32.9354332 60.2950015,34.8825333 61.0009263,36.2026505 L61.0009263,37.3690205 L53.6390617,37.3690205 Z" id="Fill-9" fill="#000000"></path>
                        <path d="M103.234935,17.1789334 L107.888589,9.00343899 L115.789642,9.00343899 L107.914214,22.4183301 L116.122214,37.1300764 L108.195537,37.1300764 L103.260559,27.7842139 L98.3510256,37.1300764 L90.3989053,37.1300764 L98.6067248,22.4183301 L90.7569203,9.00343899 L98.683597,9.00343899 L103.234935,17.1789334 Z" id="Fill-11" fill="#000000"></path>
                        <g id="Group-15">
                            <mask id="mask-2" fill="white">
                                <use xlink:href="#path-1"></use>
                            </mask>
                            <g id="Clip-14"></g>
                            <path d="M131.188602,26.0296793 L136.212722,9.00354803 L143.99991,9.00354803 L133.072692,40.6271148 L132.469805,42.0691756 C130.845203,45.6446141 128.165504,47.4326968 124.431248,47.4326968 C123.37615,47.4326968 121.569293,47.2722255 120.480812,46.9520099 L120.480812,41.4114796 L122.321053,41.4367406 C123.694105,41.4367406 124.72015,41.2257472 125.398286,40.8043056 C126.076602,40.3825006 126.60803,39.6824605 126.993474,38.7045488 L127.847549,36.4528621 L118.326947,9.00354803 L126.139398,9.00354803 L131.188602,26.0296793 Z" id="Fill-13" fill="#000000" mask="url(#mask-2)"></path>
                        </g>
                    </g>
                </g>
            </g>
        </g>
    </g>
</svg>