<?xml version="1.0" encoding="UTF-8" standalone="no"?>
<svg width="20px" height="20px" viewBox="0 0 20 20" version="1.1" xmlns="http://www.w3.org/2000/svg" xmlns:xlink="http://www.w3.org/1999/xlink">
    <!-- Generator: sketchtool 3.8.3 (29802) - http://www.bohemiancoding.com/sketch -->
    <title>D7525F01-EDCB-4CE5-AB52-97C77671BE63</title>
    <desc>Created with sketchtool.</desc>
    <defs></defs>
    <g id="API-Docs" stroke="none" stroke-width="1" fill="none" fill-rule="evenodd">
        <g id="3---API-Docs-UI" transform="translate(-375.000000, -1297.000000)">
            <g id="note_icon" transform="translate(375.000000, 1297.000000)">
                <circle id="Oval-1" fill="#73DA31" cx="10" cy="10" r="10"></circle>
                <path d="M11.4952674,13.3004056 L11.3713191,13.8074669 C10.9994723,13.9539521 10.7027505,14.0656922 10.4811448,14.1426908 C10.2595392,14.2196894 10.0022551,14.2581881 9.70928486,14.2581881 C9.25856145,14.2581881 8.90831705,14.1483259 8.65854117,13.9285983 C8.40876528,13.7088706 8.28387921,13.4299897 8.28387921,13.0919471 C8.28387921,12.9604861 8.29326914,12.8262101 8.31204928,12.6891151 C8.33082942,12.55202 8.3608772,12.3970862 8.40219351,12.2243089 L8.86418269,10.5791767 C8.905499,10.4214235 8.94024175,10.2721236 8.96841196,10.1312725 C8.99658217,9.99042147 9.01066707,9.86177943 9.01066707,9.74534255 C9.01066707,9.53500496 8.96747339,9.38852205 8.88108474,9.30588942 C8.79469608,9.2232568 8.62943331,9.18194111 8.38529147,9.18194111 C8.26509856,9.18194111 8.14209047,9.20072097 8.01626352,9.23828125 C7.89043657,9.27584153 7.78245237,9.31152327 7.69230769,9.34532752 L7.81625601,8.83826623 C8.12049431,8.71431729 8.41158214,8.60821108 8.68952825,8.51994441 C8.96747435,8.43167774 9.23039239,8.38754507 9.47829026,8.38754507 C9.92525764,8.38754507 10.2698681,8.49552927 10.5121319,8.7115009 C10.7543957,8.92747253 10.8755258,9.20823145 10.8755258,9.55378606 C10.8755258,9.6251506 10.8670749,9.75097566 10.8501728,9.93126502 C10.8332706,10.1115544 10.8022839,10.2768172 10.7572115,10.4270583 L10.2952224,12.0665565 C10.2576621,12.1980175 10.2238583,12.3482564 10.1938101,12.5172776 C10.1637619,12.6862989 10.148738,12.814002 10.148738,12.9003906 C10.148738,13.1182403 10.1975656,13.2666012 10.2952224,13.3454778 C10.3928791,13.4243544 10.5618978,13.4637921 10.8022837,13.4637921 C10.9149645,13.4637921 11.0426676,13.4440732 11.1853966,13.4046349 C11.3281257,13.3651966 11.4314149,13.3304539 11.4952674,13.3004056 L11.4952674,13.3004056 Z M11.6135817,6.42127404 C11.6135817,6.7067322 11.5055975,6.94993139 11.2896259,7.15087891 C11.0736543,7.35182643 10.8135532,7.45229868 10.5093149,7.45229868 C10.2050766,7.45229868 9.94403655,7.35182643 9.7261869,7.15087891 C9.50833725,6.94993139 9.39941406,6.7067322 9.39941406,6.42127404 C9.39941406,6.13581588 9.50833725,5.8916777 9.7261869,5.68885216 C9.94403655,5.48602663 10.2050766,5.38461538 10.5093149,5.38461538 C10.8135532,5.38461538 11.0736543,5.48602663 11.2896259,5.68885216 C11.5055975,5.8916777 11.6135817,6.13581588 11.6135817,6.42127404 L11.6135817,6.42127404 Z" id="i" fill="#FFFFFF"></path>
            </g>
        </g>
    </g>
</svg>