<?xml version="1.0" encoding="UTF-8" standalone="no"?>
<svg width="22px" height="20px" viewBox="0 0 22 20" version="1.1" xmlns="http://www.w3.org/2000/svg" xmlns:xlink="http://www.w3.org/1999/xlink">
    <!-- Generator: sketchtool 3.8.3 (29802) - http://www.bohemiancoding.com/sketch -->
    <title>B7C2C69B-F660-4083-AE5A-7BBD75A32740</title>
    <desc>Created with sketchtool.</desc>
    <defs></defs>
    <g id="API-Docs" stroke="none" stroke-width="1" fill="none" fill-rule="evenodd">
        <g id="3---API-Docs-UI" transform="translate(-375.000000, -1147.000000)">
            <g id="warning_icn" transform="translate(375.000000, 1147.000000)">
                <path d="M13.1329639,1.71280054 L21.0195152,16.4062665 C22.1946623,18.2790649 21.3581091,19.797268 19.1415813,19.797268 L2.86876222,19.797268 C0.656460781,19.797268 -0.184026145,18.2785984 0.990828318,16.4062665 L8.87737954,1.71280054 C10.0525267,-0.159997869 11.9581095,-0.159531369 13.1329639,1.71280054 Z" id="Rectangle-35" fill="#FF6C00"></path>
                <path d="M11.65625,13.0989583 L10.5677083,13.0989583 L10.4479167,7.75 L11.78125,7.75 L11.65625,13.0989583 Z M10.4114583,14.734375 C10.4114583,14.5364573 10.4756938,14.3723965 10.6041667,14.2421875 C10.7326395,14.1119785 10.907985,14.046875 11.1302083,14.046875 C11.3524317,14.046875 11.5277771,14.1119785 11.65625,14.2421875 C11.7847229,14.3723965 11.8489583,14.5364573 11.8489583,14.734375 C11.8489583,14.9253482 11.786459,15.0850688 11.6614583,15.2135417 C11.5364577,15.3420145 11.3593761,15.40625 11.1302083,15.40625 C10.9010405,15.40625 10.723959,15.3420145 10.5989583,15.2135417 C10.4739577,15.0850688 10.4114583,14.9253482 10.4114583,14.734375 L10.4114583,14.734375 Z" id="!" fill="#FFFFFF"></path>
            </g>
        </g>
    </g>
</svg>